<svg version="1.1" id="Camada_1" xmlns="http://www.w3.org/2000/svg" x="0" y="0" viewBox="0 0 1000 292.4" style="enable-background:new 0 0 1000 292.4" xml:space="preserve"><style>.st0{fill-rule:evenodd;clip-rule:evenodd;fill:#1e2044}</style><g id="Desk"><g transform="translate(-130 -49)" id="Home-Safra"><g id="HEADER" transform="translate(0 45)"><g id="LOGO" transform="translate(130 4)"><path id="Fill-1" class="st0" d="M468.5 106.8c.5-16.6-13.1-31.8-41.7-32.3-20.3-.3-35.3 6.8-36.6 23.6-1.1 14.1 3.6 16.8 12.7 20.5 4.7 5.1 43.1 11.3 50.8 12.6 11.1 2 35.1 7 47.8 20.2 23.3 24.7 12.5 73.3-12.7 89.9-17.3 11.2-40.9 14-63.4 14.3-10.3.3-34.7-3.4-49.7-14.3-18-13.2-27-33.5-28.3-52.8h40.5c0 5.3 1.7 13.8 8.6 21.1 9.1 9.6 24.2 12.6 38.1 12.1 13.9-.3 26.9-4.5 32.2-9.6 8.9-8.4 10.8-24.4.8-34.5-13.4-14.1-53.3-14.1-79.4-23.1-22-7.6-40-23.6-36.7-56.7 3.3-32.6 26.6-56.8 76.1-56.8 10.8 0 48.6.8 68.3 26.2 10.6 13.7 13.3 32.9 11.7 39.6h-39.1z"/><path id="Fill-3" class="st0" d="M617.8 177.6c-11.1 6.7-26.1 6.2-36.1 8.1-11.9 2.3-20.3 12.4-16.9 24.8 2.2 9 9.1 15.4 25.8 12.6 23-3.7 27.2-20 27.2-36.8v-8.7zm4.4 71.6c-2.8-3.6-4.4-9.8-4.2-15.2-13.6 12.9-25.6 21.6-48.3 21.6-30.6 0-45.6-17.4-44.5-46.9.8-21.4 9.2-42.2 43.6-48.1 14.4-.6 30-3.9 39.2-7 6.9-2.5 10.3-9.8 9.7-17.2 0-9.5-7.8-13.8-25.6-13.8-22.2 0-25 13.8-25.5 24.8H530c.6-48.6 41.7-53.1 62.2-53.1 15 0 28.1 2.5 35.6 5.6 15 6.2 26.9 18.5 26.9 42.7v83.2c-.3 6.7 3.6 13.5 8.6 18v5.4h-41.1z"/><path id="Fill-5" class="st0" d="M669.9 100h21.2V82.3c0-22.7 11.4-37.9 36.7-37.9H752v29.2h-13.6c-5.3 0-8.4 3.4-8.4 10.4v16h23.1v26.1H730v123.1h-38.9v-123h-21.2V100z"/><path id="Fill-7" class="st0" d="M769.9 96.9h38.9v29.5h.5c2.5-9 4.4-14.3 18.1-23.9 6.7-5.1 15.6-10.1 27.8-8.1v40.2c-16.6-2-41.7-4.2-46.4 28.9v85.7h-38.9V96.9z"/><path id="Fill-9" class="st0" d="M954.4 177.6c-11.1 6.7-26.1 6.2-36.1 8.1-12 2.3-20.3 12.4-17 24.8 2.2 9 9.2 15.4 25.8 12.6 23.1-3.7 27.2-20 27.2-36.8v-8.7zm4.5 71.6c-2.8-3.6-4.5-9.8-4.2-15.2-13.6 12.9-25.5 21.6-48.3 21.6-30.6 0-45.6-17.4-44.5-46.9.8-21.4 9.1-42.2 43.6-48.1 14.4-.6 30-3.9 39.2-7 7-2.5 10.3-9.8 9.7-17.2 0-9.5-7.8-13.8-25.5-13.8-22.2 0-25 13.8-25.6 24.8h-36.6c.5-48.6 41.6-53.1 62.2-53.1 15 0 28.1 2.5 35.6 5.6 15 6.2 26.9 18.5 26.9 42.7v83.2c-.3 6.7 3.6 13.5 8.6 18v5.4h-41.1z"/><path id="Fill-12" class="st0" d="M144.5 165c-.6-14-5.8-22.4-11-27.5h.1c6.8 0 16.4 6 16.4 15.6-.1 5.3-1.9 9.2-5.5 11.9zm-23.1 26.8v-13.4c4.9-.1 9.4-.6 13.4-1.4-1.9 9.1-7 13.5-13.4 14.8zm-18.7-15.6c2.5.9 5.7 1.6 9.8 2v13.4c-5-1.8-9.2-6.8-9.8-15.4zm-.1-38.7h9.8v32.4c-3.7-.5-6.9-1.4-9.8-2.6v-29.8zm-15.4-21.7c0-4.9 2.2-9.1 6.5-12.1v23.7c-4.1-2.3-6.5-6.8-6.5-11.6zm25.3-37.4v12.2c-3.3.1-6.5.4-9.5 1 1.1-6 4.5-11 9.5-13.2zm19.1 15.1c-2.7-1-6.1-1.9-10.2-2.5V77.9c4.8 1.6 8.8 6.5 10.2 15.6zM121.4 129V99.2c3.7.5 7.3 1.4 10.7 2.7-.4 12.8-6.9 24.8-10.7 27.1zm-18.8-29.1c2.9-.7 6.2-1.1 9.8-1.2v30.7h-9.8V99.9zm33.1 68.9c-3.9.9-8.7 1.4-14.3 1.5v-32.7c4.1.9 14.3 10.9 14.3 30.3v.9zm-3.6-39.4h-.4c4.5-5.6 8-14.4 9.1-23.4 3.1 1.9 6 4.1 8.3 6.5 1.2 1.2 1.8 1.8 2.7 1.8 1.8 0 2.7-1.5 1.8-3-2.4-3.9-3.3-7.2-3.3-11.4 0-2.7.9-5.1 1.5-6.6s0-3-1.8-3c-1.5 0-1.8 1.2-2.4 2.1-1.1 2-3.4 3.8-6.7 3.9-1.3-16.3-9.5-24.2-18-26.4 3-7.3 10.6-11.8 20.5-13.9 1.5-.3 2.7-.9 2.7-2.1 0-1.5-1.2-2.1-2.7-2.1-3.3 0-8 1.8-11.9 3-5.9 1.8-11 3-15.5 3-9.5 0-17.8-4.2-20.5-4.2-1.2 0-2.1.9-2.1 2.1 0 .9.6 1.8 2.4 2.4 7.9 2.6 13.1 6.7 15.3 12.3-4.7 1.7-8.6 5.3-11.3 9.9-3.2-6.5-7.2-9.3-13-9.3-5.7 0-10.1 4.2-10.1 9.3 0 3.6 2.4 6.3 5.1 6.3 1.2 0 1.8-.6 1.8-1.5 0-1.2-.6-1.5-.6-3.3s1.5-3.3 3.9-3.3c3.6 0 6.8 3.6 6.8 13.5v2.5c-9.4 4.2-15.5 11.6-15.5 21.6 0 10.3 6.7 18 15.5 20.5V162c-6.7-5.4-10.4-12.5-12.8-17.6-.6-1.2-1.2-2.7-2.7-2.7-1.8 0-2.4 1.8-1.5 3.9.9 2.1 1.5 5.4 1.5 8.4 0 3.6-1.2 6.9-3.6 9.3-1.2 1.2-2.1 2.1-2.1 3 0 1.2.9 1.8 1.8 1.8 1.8 0 3.9-2.1 7.7-2.1 2.4 0 5.4 1.2 10.1 4.2l1.5.9V178.9c0 4.2-1.8 6.9-5.4 6.9-2.4 0-3.9-1.8-3.9-4.2 0-1.8 1.2-2.4 1.2-3.3 0-.9-.6-1.5-1.8-1.5-1.8 0-4.8 2.7-4.8 7.2 0 4.2 3 9.3 9.2 9.3 3.5 0 6.9-1.1 10-4.2 2.9 4.7 7.9 8.9 13.7 10.5-1.6 7.9-7 14.5-14.7 14.5-3.9 0-5.9-2.1-5.9-4.8 0-2.1 1.5-3.3 2.7-3.9 1.5-.6 2.7-.9 2.7-2.7 0-.9-.6-2.1-3.6-2.1-5.4 0-9.8 4.8-9.8 10.5 0 6.3 4.5 12.3 13.7 12.3 7.9 0 14.7-3.9 19-8.8 5.1 4.2 12.8 7.6 16.7 7.6 1.2 0 2.4-.6 2.4-1.8 0-1.2-1.2-2.1-2.4-2.7-6.8-3.6-11.3-8.7-11.3-17.7v-.1c10.6-2 20.6-10.7 22.8-25.7 9.7-4.2 14.7-11.3 14.7-21.1.1-14.1-13-23.7-26.7-23.7zm50.6 84.8c-10.4 0-17.3-6-17.3-15 0-7.5 5.1-13.5 11-13.5 2.4 0 4.5.9 4.5 3.3 0 1.5-.6 2.7.9 2.7.9 0 1.8-.9 1.8-3.3 0-3-2.7-5.4-6.5-5.4h-.9c.6-1.2.6-2.4.6-2.7 0-2.7-2.1-4.2-4.2-4.2s-4.2 1.2-4.2 2.7c0 .6.3.9.9.9.9 0 1.2-.9 2.7-.9 1.2 0 2.1.6 2.1 2.1 0 2.1-1.8 3-3.3 3.9-4.8 2.7-8 8.1-8 14.4 0 8.4 4.8 13.8 11.6 16.2l-4.5 6.9c-5.9 0-8.9 4.5-14.3 14.1-.6-2.4-2.4-4.2-5.4-4.2-3.3 0-5.4 2.4-5.4 5.7 0 .9.6 1.5 1.2 1.5.9 0 1.5-.6 1.5-1.5 0-1.5.9-3 2.7-3 2.1 0 3 1.5 3 3.3 0 2.1-.3 3.3-1.8 5.7-6.2 10.2-14.9 15.3-22.3 15.3-6.5 0-10.4-3.9-10.4-7.8 0-3.6 2.1-6.6 5.7-6.6 2.4 0 3.9 1.5 3.9 3.6 0 1.8-1.5 1.8-1.5 2.7 0 .6.6.9 1.2.9 1.8 0 3-2.1 3-4.2 0-3.3-2.7-5.7-6.5-5.7-3.6 0-6.5 2.4-7.4 4.8-.9-2.4-3.9-4.8-7.4-4.8-3.9 0-6.5 2.4-6.5 5.7 0 2.1 1.2 4.2 3 4.2.6 0 1.2-.3 1.2-.9 0-.9-1.5-.9-1.5-2.7 0-2.1 1.5-3.6 3.9-3.6 3.6 0 5.7 3 5.7 6.6 0 3.9-3.9 7.8-10.4 7.8-7.4 0-16.1-5.1-22.3-15.3-1.5-2.4-1.8-3.6-1.8-5.7 0-1.8.9-3.3 3-3.3 1.8 0 2.7 1.5 2.7 3 0 .9.6 1.5 1.5 1.5.6 0 1.2-.6 1.2-1.5 0-3.3-2.1-5.7-5.4-5.7-3 0-4.8 1.8-5.4 4.2-5.4-9.6-8.3-14.1-14.3-14.1l-4.5-6.9c6.8-2.4 11.6-7.8 11.6-16.2 0-6.3-3.3-11.7-8-14.4-1.5-.9-3.3-1.8-3.3-3.9 0-1.5.9-2.1 2.1-2.1 1.5 0 1.8.9 2.7.9.6 0 .9-.3.9-.9 0-1.5-2.1-2.7-4.2-2.7s-4.2 1.5-4.2 4.2c0 .3 0 1.5.6 2.7h-.9c-3.9 0-6.5 2.4-6.5 5.4 0 2.4.9 3.3 1.8 3.3 1.5 0 .9-1.2.9-2.7 0-2.4 2.1-3.3 4.5-3.3 5.9 0 11 6 11 13.5 0 9-6.8 15-17.3 15-12.2 0-21.4-9-21.4-21.7 0-12.3 7.1-20.8 15.2-28.3l6.8-6.6c8.6-8.1 12.2-16.5 12.2-27.1 0-11.4-6.8-24.1-21.1-30.4 3-.9 4.8-3.9 4.8-7.5 0-2.4-.9-3.9-.9-5.7 0-3.6 2.1-5.7 5.1-5.7 2.7 0 4.5 2.1 4.5 4.2 0 1.8-1.2 3.3-3.3 3.3-.9 0-1.5 0-1.5.9s.9 1.2 2.1 1.2c3.6 0 5.4-3 5.4-4.5.6.3 1.2.6 2.1.6 2.1 0 3.6-1.5 3.6-3.6 0-.6-.3-1.5-1.2-1.5-.6 0-.9.6-.9 1.2 0 .9-.6 1.5-1.5 1.5-1.2 0-2.1-.9-2.7-2.1-1.2-2.1-3.6-3.9-6.5-3.9-3.9 0-6.8 2.7-7.4 6.3-1.8-1.8-3.9-3.6-6.8-5.4 2.4-1.5 4.5-2.7 6.8-4.5 3.6-2.7 6.8-5.7 10.4-9.6l16.4-18C86 31.4 95.2 27.4 104.1 27.4c7.7 0 11.6 3.9 11.6 8.4 0 3.3-1.4 5.8-3.6 7-1.3-1.3-2.2-3.1-2.6-5.2-.3-1.5-.6-1.5-.9-1.5-.6 0-.6.6-.6 1.2 0 2.6.6 4.6 1.6 6.3-.3 0-.7.1-1 .1-3 0-4.8-1.5-4.8-3.3 0-.3 0-.9.6-1.5s.3-.9 0-.9c-1.2 0-2.4 1.5-2.4 3.3 0 2.1 1.8 5.1 6.8 5.1.7 0 1.7-.1 2.8-.4 1.7 1.3 3.7 1.9 5.8 1.9 2.1 0 4.1-.6 5.8-1.9 1.1.3 2.1.4 2.8.4 5.1 0 6.8-3 6.8-5.1 0-1.8-1.2-3.3-2.4-3.3-.3 0-.6.3 0 .9s.6 1.2.6 1.5c0 1.8-1.8 3.3-4.8 3.3-.3 0-.7 0-1-.1 1-1.6 1.6-3.7 1.6-6.3 0-.6 0-1.2-.6-1.2-.3 0-.6 0-.9 1.5-.4 2.1-1.3 3.9-2.6 5.2-2.2-1.2-3.6-3.7-3.6-7 0-4.5 3.9-8.4 11.6-8.4 8.9 0 18.1 3.9 32.4 19.9l16.4 18c3.3 3.9 6.8 6.9 10.4 9.6 2.4 1.8 4.5 3 6.8 4.5-3 1.8-5.1 3.6-6.8 5.4-.6-3.6-3.6-6.3-7.4-6.3-3 0-5.4 1.8-6.5 3.9-.6 1.2-1.5 2.1-2.7 2.1-.9 0-1.5-.6-1.5-1.5 0-.6-.3-1.2-.9-1.2-.9 0-1.2.9-1.2 1.5 0 2.1 1.5 3.6 3.6 3.6.9 0 1.5-.3 2.1-.6 0 1.5 1.8 4.5 5.4 4.5 1.2 0 2.1-.3 2.1-1.2 0-.9-.6-.9-1.5-.9-2.1 0-3.3-1.2-3.3-3.3 0-2.1 1.8-4.2 4.5-4.2 3 0 5.1 2.1 5.1 5.7 0 1.8-.9 3.3-.9 5.7 0 3.6 1.8 6.6 4.8 7.5-14.3 6.3-21.1 19-21.1 30.4 0 10.5 3.6 19 12.2 27.1l6.8 6.6c8 7.5 15.2 15.9 15.2 28.3-.6 12.7-9.8 21.7-22 21.7zm-65.8 56c-2.4-4.8-5.1-7.8-6.2-9.3 3-1.2 5.1-3.3 6.2-5.7 1.2 2.4 3.3 4.5 6.2 5.7-1.1 1.4-3.8 4.4-6.2 9.3zm3-225.7c-.9.4-1.9.6-3 .6s-2.1-.2-3-.6c1.2-.9 2.2-2.2 3-4.1.8 1.9 1.9 3.2 3 4.1zm88.9 135.1c-1.8 0-3.3.9-3.9 2.1-2.4-5.4-4.8-10.5-15.2-20.2.6.3 2.7.6 4.2.6 3.3 0 6.8-.9 8.9-3 .6 2.1 2.4 3.3 4.5 3.3 3.3 0 4.5-2.1 4.5-4.5 0-.9-.3-1.8-1.2-1.8-1.8 0-.3 3.6-3.3 3.6-1.2 0-2.1-.9-2.1-2.4s.9-3.3.9-5.4c0-4.8-3-8.1-6.5-9-2.1-.6-3.3-2.1-3.3-3.9 0-2.4 1.8-2.7 3-2.7s2.1.3 2.1-.6c0-.9-.9-1.5-2.7-1.5-2.1 0-5.1 1.5-5.1 4.8 0 1.2.3 2.4 1.5 3.6-2.7.6-5.1 2.7-5.1 6 0 2.1.6 4.2 2.1 4.2 1.8 0 .3-1.5.3-3.9 0-2.7 2.4-3.9 4.8-3.9 3.3 0 6.2 3 6.2 6.9 0 4.5-3.6 7.5-9.2 7.5-3.3 0-8-.6-11.9-5.1-6.2-6.9-9.8-12.9-9.8-23.8 0-13.8 9.8-25.9 24.1-29.8 3-.9 5.4-3.6 5.4-7.2 0-3-1.8-5.4-4.8-5.4-1.2 0-2.1.3-2.1 1.2s.9.9 1.5.9c1.2 0 2.7 1.2 2.7 3.3 0 3-2.4 4.8-5.1 4.8-3.3 0-5.4-2.4-5.4-5.7 0-6.3 7.4-10.5 13.1-13.2-5.1-2.4-6.8-3.3-10.7-6.3-.9-.9-1.2-1.8-1.2-3 0-1.5.9-2.7 2.1-2.7.9 0 1.5.6 1.5 1.5s-.6.9-.6 1.5.3.9.9.9c.6 0 2.1-.6 2.1-3 0-1.8-1.2-3.6-3.9-3.6s-4.8 2.1-4.8 5.1c-2.1-1.8-4.5-3.9-6.5-6.3L171.3 53c-2.7-3-1.2-8.7 2.7-8.7 2.1 0 3 1.5 3 2.7 0 2.7-2.7 1.5-2.7 3 0 .6.3 1.2 1.2 1.2 2.1 0 4.2-1.5 4.2-4.5 0-2.7-2.4-5.1-5.7-5.1-3.9 0-6.5 3-6.5 7.2l-3-3.3c-13.1-14.4-23.8-20.8-34.2-20.8-3.9 0-7.4 1.2-9.5 2.7-1.8-2.1-2.7-3.6-3.9-5.4-1.2 1.8-2.1 3.3-3.9 5.4-2.1-1.5-5.7-2.7-9.5-2.7-10.4 0-21.1 6.3-34.2 20.8l-3 3.3c0-4.2-2.7-7.2-6.5-7.2-3.3 0-5.7 2.4-5.7 5.1 0 3 2.1 4.5 4.2 4.5.9 0 1.2-.6 1.2-1.2 0-1.5-2.7-.3-2.7-3 0-1.2.9-2.7 3-2.7 3.9 0 5.4 5.7 2.7 8.7L53 63.5c-2.1 2.4-4.5 4.5-6.5 6.3 0-3-2.1-5.1-4.8-5.1-2.7 0-3.9 1.8-3.9 3.6 0 2.4 1.5 3 2.1 3 .6 0 .9-.3.9-.9 0-.6-.6-.6-.6-1.5s.6-1.5 1.5-1.5c1.2 0 2.1 1.2 2.1 2.7 0 1.2-.3 2.1-1.2 3-3.6 3.6-5.7 3.9-10.7 6.3C37.6 82.1 45 86.3 45 92.6c0 3.3-2.1 5.7-5.4 5.7-2.7 0-5.1-1.8-5.1-4.8 0-2.1 1.5-3.3 2.7-3.3.6 0 1.5 0 1.5-.9s-.9-1.2-2.1-1.2c-3 0-4.8 2.4-4.8 5.4 0 3.6 2.4 6.3 5.4 7.2 14.3 4.2 24.1 15.9 24.1 29.8 0 10.8-3.9 16.5-9.8 23.8-3.9 4.5-8.6 5.1-11.9 5.1-5.7 0-9.2-3-9.2-7.5 0-3.9 3-6.9 6.2-6.9 2.4 0 4.8 1.2 4.8 3.9 0 2.4-1.5 3.9.3 3.9 1.5 0 2.1-2.1 2.1-4.2 0-3.3-2.4-5.4-5.1-6 1.2-1.2 1.5-2.4 1.5-3.6 0-3.3-3-4.8-5.1-4.8-1.8 0-2.7.6-2.7 1.5s.9.6 2.1.6c1.2 0 3 .3 3 2.7 0 1.8-1.2 3.3-3.3 3.9-3.6.9-6.5 4.2-6.5 9 0 2.1.9 3.9.9 5.4 0 1.5-.9 2.4-2.1 2.4-3 0-1.5-3.6-3.3-3.6-.9 0-1.2.9-1.2 1.8 0 2.4 1.2 4.5 4.5 4.5 2.1 0 3.9-1.2 4.5-3.3 2.1 2.1 5.7 3 8.9 3 1.5 0 3.6-.3 4.2-.6-10.4 9.6-12.8 14.7-15.2 20.2-.6-1.2-2.1-2.1-3.9-2.1-3 0-4.5 1.8-4.5 4.5 0 .6 0 2.4 1.5 2.4 1.2 0 .6-1.2.6-2.1 0-1.2.9-2.1 2.4-2.1 2.4 0 3 2.1 2.4 5.4-.3 1.5-.3 3.3-.3 4.8 0 14.1 10.4 24.4 24.1 24.4 2.1 0 3.9-.3 5.9-.6l4.2 6.3c-3 .9-5.1 3.6-5.1 6.6 0 3.9 3 6.9 6.8 6.9 2.4 0 4.2-1.2 4.2-2.4 0-.9-.6-1.2-1.2-1.2-.9 0-.9.9-3 .9-2.4 0-4.2-1.8-4.2-4.2 0-2.4 2.1-4.2 5.1-4.2 5.7 0 8.3 6.6 12.2 13.2l3.9 6.6c6.2 10.8 16.4 17.1 24.7 17.1 1.2 0 2.4 0 3.6-.3 3.6 3.6 7.1 10.2 8.6 13.2 1.5-3 5.1-9.6 8.6-13.2 1.2.3 2.4.3 3.6.3 8.3 0 18.4-6.3 24.7-17.1l3.9-6.6c3.9-6.6 6.5-13.2 12.2-13.2 3 0 5.1 1.8 5.1 4.2 0 2.4-1.8 4.2-4.2 4.2-2.1 0-2.1-.9-3-.9-.6 0-1.2.3-1.2 1.2 0 1.2 1.8 2.4 4.2 2.4 3.9 0 6.8-3 6.8-6.9 0-3-2.1-5.7-5.1-6.6l4.2-6.3c2.1.3 3.9.6 5.9.6 13.7 0 24.1-10.2 24.1-24.4 0-1.5 0-3.3-.3-4.8-.6-3.3 0-5.4 2.4-5.4 1.5 0 2.4.9 2.4 2.1 0 .9-.6 2.1.6 2.1 1.5 0 1.5-1.8 1.5-2.4 0-2.7-1.5-4.5-4.5-4.5zm-7.7 51.7c-13.1 13.5-32.4 23.2-50.9 32.2-12.2 6-24.1 12-33.3 19.3-9.2-7.2-21.1-13.2-33.3-19.3-18.4-9-37.8-18.7-50.9-32.2C16.1 214.2 8 196.7 8 176.9c0-16.8 6.5-31 21.4-49.9 1.2-1.5 2.4-3 2.4-4.2 0-1.2-1.2-3.6-1.8-4.8L19.6 95.1c-2.4-5.1-4.8-9.9-4.8-15 0-4.2 2.7-7.2 6.2-10.2l15-13.6c.6-.6.6-1.5.3-2.1l-4.8-9.9c-.6-1.2-.6-2.1.3-2.7 14.6-9.9 26.8-12.9 44.3-17.7 16.7-4.5 31.5-8.4 40.8-14.4 9.2 6 24.1 9.9 40.8 14.4 17.6 4.8 29.5 8.4 44.3 17.7.9.6.9 1.5.3 2.7l-4.8 9.9c-.3.6-.3 1.5.3 2.1l14.9 13.5c3.6 3 6.2 6 6.2 10.2 0 5.1-2.4 9.9-4.8 15l-10.4 22.9c-.6 1.2-1.8 3.6-1.8 4.8 0 1.2 1.2 2.7 2.4 4.2 16.1 18 21.4 33.1 21.4 49.9.1 19.9-7.9 37.4-24.6 54.5zm14-103.4c-2.7-3.3-4.2-4.8-4.2-6 0-1.2.9-3 1.8-5.1l8.9-19.9c2.7-6 5.1-11.1 5.1-17.4 0-4.5-1.8-9-6.2-12.9l-12.8-11.1c-1.2-.9-1.2-2.4-.6-3.6l4.8-10.8c.3-.6.3-1.5-.6-2.1-14.6-9.9-31.2-15.9-47-20.5-15.8-4.4-37-10.4-47.4-18.5-10.4 8.1-31.5 13.8-47.3 18.4-15.8 4.5-32.4 10.5-47 20.5-.9.6-.9 1.5-.6 2.1l4.8 10.8c.6 1.2.6 2.7-.6 3.6L13.4 66.5c-4.5 3.9-6.2 8.4-6.2 12.9 0 6.3 2.4 11.4 5.1 17.4l8.9 19.9c.9 2.1 1.8 3.9 1.8 5.1 0 1.2-1.5 2.7-4.2 6C5.4 144.7 0 158.5 0 176.9c0 25.6 12.5 45.1 26.8 59.9 14.6 15 34.8 25 53.3 34 12.2 6 25 12 36.9 21.7 11.9-9.6 24.7-15.6 36.9-21.7 18.4-9 39-19 53.3-34 14.3-14.7 26.8-34.3 26.8-59.9-.2-18.4-5.5-32.2-18.9-49z"/></g></g></g></g></svg>