<svg width="510" height="142" viewBox="0 0 510 142" fill="none" xmlns="http://www.w3.org/2000/svg">
<path fill-rule="evenodd" clip-rule="evenodd" d="M238.611 51.7444C238.866 43.7017 231.939 36.3373 217.373 36.095C207.034 35.9497 199.394 39.3896 198.732 47.5292C198.172 54.3607 200.566 55.6689 205.2 57.4615C207.594 59.9325 227.152 62.9364 231.073 63.5662C236.727 64.5352 248.95 66.9577 255.418 73.3531C267.285 85.3203 261.785 108.867 248.95 116.91C240.139 122.336 228.119 123.693 216.66 123.838C211.414 123.983 198.987 122.191 191.347 116.91C182.18 110.514 177.596 100.679 176.934 91.3281H197.561C197.561 93.896 198.427 98.0142 201.941 101.551C206.576 106.202 214.266 107.656 221.346 107.414C228.425 107.268 235.046 105.233 237.745 102.762C242.278 98.6925 243.246 90.9405 238.153 86.047C231.328 79.2156 211.007 79.2156 197.714 74.8551C186.509 71.1729 177.341 63.4209 179.022 47.3839C180.703 31.5892 192.57 19.8643 217.78 19.8643C223.281 19.8643 242.533 20.2519 252.566 32.5582C257.965 39.1958 259.34 48.4982 258.525 51.7444H238.611Z" fill="white"/>
<path fill-rule="evenodd" clip-rule="evenodd" d="M314.651 86.0472C308.997 89.2934 301.358 89.0511 296.265 89.9717C290.204 91.0861 285.926 95.9795 287.657 101.987C288.778 106.348 292.292 109.449 300.798 108.092C312.512 106.299 314.651 98.402 314.651 90.2624V86.0472ZM316.892 120.738C315.466 118.993 314.651 115.989 314.753 113.373C307.826 119.623 301.714 123.838 290.153 123.838C274.568 123.838 266.929 115.408 267.489 101.115C267.896 90.7469 272.174 80.6693 289.695 77.8107C297.029 77.52 304.974 75.9211 309.66 74.4192C313.174 73.2079 314.905 69.6711 314.6 66.0858C314.6 61.483 310.627 59.3996 301.562 59.3996C290.255 59.3996 288.829 66.0858 288.574 71.4153H269.934C270.239 47.8685 291.172 45.6882 301.613 45.6882C309.252 45.6882 315.924 46.8995 319.744 48.4014C327.384 51.4054 333.444 57.3647 333.444 69.0897V109.4C333.292 112.646 335.278 115.941 337.824 118.121V120.738H316.892Z" fill="white"/>
<path fill-rule="evenodd" clip-rule="evenodd" d="M341.186 48.4499H351.983V39.8743C351.983 28.8761 357.789 21.5117 370.675 21.5117H383V35.6591H376.073C373.374 35.6591 371.795 37.3064 371.795 40.6979V48.4499H383.56V61.0954H371.795V120.737H351.983V61.1438H341.186V48.4499Z" fill="white"/>
<path fill-rule="evenodd" clip-rule="evenodd" d="M392.117 46.9479H411.929V61.2406H412.183C413.457 56.8801 414.424 54.3123 421.402 49.6611C424.814 47.1902 429.347 44.7677 435.561 45.7367V65.2135C427.106 64.2445 414.323 63.1786 411.929 79.2155V120.737H392.117V46.9479Z" fill="white"/>
<path fill-rule="evenodd" clip-rule="evenodd" d="M486.084 86.0472C480.431 89.2934 472.791 89.0511 467.698 89.9717C461.586 91.0861 457.359 95.9795 459.04 101.987C460.16 106.348 463.725 109.449 472.18 108.092C483.945 106.299 486.033 98.402 486.033 90.2624V86.0472H486.084ZM488.376 120.738C486.95 118.993 486.084 115.989 486.237 113.373C479.31 119.623 473.25 123.838 461.637 123.838C446.052 123.838 438.413 115.408 438.973 101.115C439.381 90.7469 443.608 80.6693 461.179 77.8107C468.513 77.52 476.458 75.9211 481.144 74.4192C484.709 73.2079 486.39 69.6711 486.084 66.0858C486.084 61.483 482.112 59.3996 473.097 59.3996C461.79 59.3996 460.364 66.0858 460.058 71.4153H441.418C441.672 47.8685 462.605 45.6882 473.097 45.6882C480.736 45.6882 487.408 46.8995 491.228 48.4014C498.868 51.4054 504.929 57.3647 504.929 69.0897V109.4C504.776 112.646 506.762 115.941 509.309 118.121V120.738H488.376Z" fill="white"/>
<path fill-rule="evenodd" clip-rule="evenodd" d="M73.5951 79.9425C73.2895 73.1595 70.6411 69.0897 67.9927 66.6188H68.0436C71.5069 66.6188 76.3963 69.5258 76.3963 74.177C76.3454 76.7448 75.4286 78.6344 73.5951 79.9425ZM61.8301 92.9271V86.4348C64.3257 86.3864 66.6176 86.1441 68.6548 85.7565C67.6871 90.1655 65.0896 92.2973 61.8301 92.9271ZM52.306 85.3689C53.5793 85.805 55.2091 86.1441 57.2972 86.3379V92.8302C54.7507 91.9581 52.6116 89.5356 52.306 85.3689ZM52.2551 66.6188H57.2463V82.3166C55.3619 82.0743 53.7321 81.6383 52.2551 81.0569V66.6188ZM44.4117 56.1051C44.4117 53.7311 45.5322 51.6962 47.7222 50.2427V61.7253C45.6341 60.611 44.4117 58.4307 44.4117 56.1051ZM57.2972 37.9848V43.8957C55.6165 43.9442 53.9867 44.0895 52.4588 44.3802C53.019 41.4732 54.7507 39.0507 57.2972 37.9848ZM67.025 45.3008C65.6499 44.8163 63.9182 44.3802 61.8301 44.0895V37.7426C64.2747 38.5178 66.312 40.8918 67.025 45.3008ZM61.8301 62.5005V48.0624C63.7145 48.3047 65.548 48.7407 67.2797 49.3706C67.076 55.5722 63.7654 61.3862 61.8301 62.5005ZM52.2551 48.4016C53.7321 48.0624 55.4128 47.8686 57.2463 47.8202V62.6943H52.2551V48.4016ZM69.1132 81.7836C67.1269 82.2197 64.6822 82.4619 61.8301 82.5104V66.6672C63.9182 67.1033 69.1132 71.9483 69.1132 81.3476V81.7836ZM67.2797 62.6943H67.0759C69.3678 59.9811 71.1504 55.7175 71.7107 51.357C73.2895 52.2776 74.7665 53.3435 75.9379 54.5063C76.5491 55.0877 76.8547 55.3784 77.313 55.3784C78.2298 55.3784 78.6882 54.6516 78.2298 53.9249C77.0075 52.0353 76.5491 50.4365 76.5491 48.4016C76.5491 47.0934 77.0075 45.9306 77.313 45.2039C77.6186 44.4771 77.313 43.7504 76.3963 43.7504C75.6323 43.7504 75.4795 44.3318 75.174 44.7678C74.6137 45.7368 73.4423 46.6089 71.7616 46.6574C71.0995 38.76 66.9232 34.9325 62.594 33.8666C64.122 30.3297 67.9927 28.1495 73.0349 27.132C73.7988 26.9867 74.41 26.696 74.41 26.1146C74.41 25.3878 73.7988 25.0971 73.0349 25.0971C71.3541 25.0971 68.9604 25.9692 66.9741 26.5506C63.9692 27.4227 61.3717 28.0041 59.0798 28.0041C54.2414 28.0041 50.0141 25.9692 48.639 25.9692C48.0278 25.9692 47.5694 26.4053 47.5694 26.9867C47.5694 27.4227 47.875 27.8588 48.7918 28.1495C52.8153 29.4092 55.4637 31.3956 56.5842 34.1088C54.1904 34.9325 52.2041 36.6767 50.829 38.9054C49.1992 35.7561 47.162 34.3995 44.208 34.3995C41.3049 34.3995 39.064 36.4344 39.064 38.9054C39.064 40.6496 40.2863 41.9577 41.6614 41.9577C42.2726 41.9577 42.5782 41.667 42.5782 41.231C42.5782 40.6496 42.2726 40.5042 42.2726 39.6321C42.2726 38.76 43.0366 38.0333 44.2589 38.0333C46.0924 38.0333 47.7222 39.7775 47.7222 44.574V45.7853C42.9347 47.8202 39.8279 51.4055 39.8279 56.2505C39.8279 61.2408 43.2403 64.9715 47.7222 66.1827V78.489C44.3098 75.8727 42.4254 72.4328 41.2031 69.9618C40.8975 69.3804 40.5919 68.6537 39.8279 68.6537C38.9112 68.6537 38.6056 69.5258 39.064 70.5432C39.5224 71.5607 39.8279 73.1595 39.8279 74.613C39.8279 76.3572 39.2168 77.9561 37.9944 79.1189C37.3833 79.7003 36.9249 80.1363 36.9249 80.5724C36.9249 81.1538 37.3833 81.4445 37.8416 81.4445C38.7584 81.4445 39.8279 80.427 41.7633 80.427C42.9856 80.427 44.5136 81.0084 46.9073 82.4619L47.6713 82.898V86.6771C47.6713 88.712 46.7545 90.0201 44.921 90.0201C43.6987 90.0201 42.9347 89.148 42.9347 87.9852C42.9347 87.1131 43.5459 86.8224 43.5459 86.3864C43.5459 85.9503 43.2403 85.6596 42.6291 85.6596C41.7124 85.6596 40.1845 86.9678 40.1845 89.148C40.1845 91.1829 41.7124 93.6539 44.8701 93.6539C46.6527 93.6539 48.3843 93.1209 49.9632 91.619C51.4402 93.8961 53.9867 95.931 56.9407 96.7062C56.1258 100.534 53.3755 103.731 49.4539 103.731C47.4676 103.731 46.4489 102.714 46.4489 101.406C46.4489 100.388 47.2129 99.807 47.8241 99.5163C48.588 99.2256 49.1992 99.0803 49.1992 98.2082C49.1992 97.7721 48.8936 97.1907 47.3657 97.1907C44.6154 97.1907 42.3745 99.5163 42.3745 102.278C42.3745 105.33 44.6664 108.237 49.352 108.237C53.3755 108.237 56.8388 106.348 59.0289 103.974C61.6263 106.009 65.548 107.656 67.5343 107.656C68.1455 107.656 68.7567 107.365 68.7567 106.784C68.7567 106.202 68.1455 105.766 67.5343 105.476C64.071 103.731 61.7791 101.261 61.7791 96.9V96.8516C67.1778 95.8826 72.2709 91.6674 73.3914 84.3999C78.3317 82.365 80.8782 78.9251 80.8782 74.177C80.9291 67.3455 74.2572 62.6943 67.2797 62.6943ZM93.0507 103.78C87.7539 103.78 84.2396 100.873 84.2396 96.5124C84.2396 92.8787 86.8371 89.9717 89.842 89.9717C91.0644 89.9717 92.1339 90.4077 92.1339 91.5705C92.1339 92.2973 91.8283 92.8787 92.5923 92.8787C93.0507 92.8787 93.5091 92.4426 93.5091 91.2798C93.5091 89.8263 92.1339 88.6635 90.1986 88.6635H89.7402C90.0458 88.0821 90.0458 87.5007 90.0458 87.3554C90.0458 86.0472 88.9762 85.3205 87.9067 85.3205C86.8371 85.3205 85.7676 85.9019 85.7676 86.6286C85.7676 86.9193 85.9204 87.0647 86.226 87.0647C86.6843 87.0647 86.8371 86.6286 87.6011 86.6286C88.2123 86.6286 88.6706 86.9193 88.6706 87.6461C88.6706 88.6635 87.7539 89.0996 86.9899 89.5356C84.5452 90.8438 82.9155 93.4601 82.9155 96.5124C82.9155 100.582 85.3601 103.199 88.8234 104.361L86.5315 107.704C83.5266 107.704 81.9987 109.885 79.2484 114.536C78.9428 113.373 78.0261 112.501 76.4982 112.501C74.8174 112.501 73.7479 113.664 73.7479 115.263C73.7479 115.699 74.0535 115.989 74.3591 115.989C74.8174 115.989 75.123 115.699 75.123 115.263C75.123 114.536 75.5814 113.809 76.4982 113.809C77.5677 113.809 78.0261 114.536 78.0261 115.408C78.0261 116.425 77.8733 117.007 77.1093 118.17C73.9516 123.111 69.5206 125.582 65.7517 125.582C62.4412 125.582 60.4549 123.693 60.4549 121.803C60.4549 120.059 61.5245 118.606 63.358 118.606C64.5803 118.606 65.3443 119.332 65.3443 120.35C65.3443 121.222 64.5803 121.222 64.5803 121.658C64.5803 121.949 64.8859 122.094 65.1915 122.094C66.1083 122.094 66.7194 121.077 66.7194 120.059C66.7194 118.46 65.3443 117.298 63.4089 117.298C61.5754 117.298 60.0984 118.46 59.64 119.623C59.1817 118.46 57.6537 117.298 55.8712 117.298C53.8849 117.298 52.5606 118.46 52.5606 120.059C52.5606 121.077 53.1718 122.094 54.0886 122.094C54.3942 122.094 54.6997 121.949 54.6997 121.658C54.6997 121.222 53.9358 121.222 53.9358 120.35C53.9358 119.332 54.6997 118.606 55.9221 118.606C57.7556 118.606 58.8251 120.059 58.8251 121.803C58.8251 123.693 56.8388 125.582 53.5283 125.582C49.7595 125.582 45.3285 123.111 42.1708 118.17C41.4068 117.007 41.254 116.425 41.254 115.408C41.254 114.536 41.7124 113.809 42.7819 113.809C43.6987 113.809 44.1571 114.536 44.1571 115.263C44.1571 115.699 44.4626 115.989 44.921 115.989C45.2266 115.989 45.5322 115.699 45.5322 115.263C45.5322 113.664 44.4626 112.501 42.7819 112.501C41.254 112.501 40.3372 113.373 40.0317 114.536C37.2814 109.885 35.8044 107.704 32.7485 107.704L30.4567 104.361C33.92 103.199 36.3646 100.582 36.3646 96.5124C36.3646 93.4601 34.6839 90.8438 32.2902 89.5356C31.5262 89.0996 30.6094 88.6635 30.6094 87.6461C30.6094 86.9193 31.0678 86.6286 31.679 86.6286C32.443 86.6286 32.5958 87.0647 33.0541 87.0647C33.3597 87.0647 33.5125 86.9193 33.5125 86.6286C33.5125 85.9019 32.443 85.3205 31.3734 85.3205C30.3039 85.3205 29.2343 86.0472 29.2343 87.3554C29.2343 87.5007 29.2343 88.0821 29.5399 88.6635H29.0815C27.0952 88.6635 25.771 89.8263 25.771 91.2798C25.771 92.4426 26.2294 92.8787 26.6878 92.8787C27.4517 92.8787 27.1462 92.2973 27.1462 91.5705C27.1462 90.4077 28.2157 89.9717 29.438 89.9717C32.443 89.9717 35.0404 92.8787 35.0404 96.5124C35.0404 100.873 31.5771 103.78 26.2294 103.78C20.0158 103.78 15.3302 99.4194 15.3302 93.2663C15.3302 87.3069 18.9463 83.1887 23.0717 79.5549L26.535 76.3572C30.915 72.4328 32.7485 68.363 32.7485 63.2273C32.7485 57.704 29.2852 51.5508 22.0021 48.4985C23.5301 48.0624 24.4468 46.6089 24.4468 44.8647C24.4468 43.7019 23.9884 42.9752 23.9884 42.1031C23.9884 40.3589 25.058 39.3414 26.5859 39.3414C27.961 39.3414 28.8778 40.3589 28.8778 41.3763C28.8778 42.2484 28.2666 42.9752 27.1971 42.9752C26.7387 42.9752 26.4331 42.9752 26.4331 43.4112C26.4331 43.8473 26.8915 43.9926 27.5027 43.9926C29.3362 43.9926 30.2529 42.5391 30.2529 41.8124C30.5585 41.9577 30.8641 42.1031 31.3225 42.1031C32.392 42.1031 33.156 41.3763 33.156 40.3589C33.156 40.0682 33.0032 39.6321 32.5448 39.6321C32.2392 39.6321 32.0864 39.9228 32.0864 40.2135C32.0864 40.6496 31.7809 40.9403 31.3225 40.9403C30.7113 40.9403 30.2529 40.5042 29.9473 39.9228C29.3362 38.9054 28.1138 38.0333 26.6368 38.0333C24.6505 38.0333 23.1735 39.3414 22.868 41.0856C21.9512 40.2135 20.8817 39.3414 19.4047 38.4693C20.627 37.7426 21.6965 37.1612 22.868 36.2891C24.7015 34.9809 26.3313 33.5274 28.1648 31.6379L36.5174 22.9169C43.8005 15.2133 48.4862 13.2753 53.019 13.2753C56.9407 13.2753 58.927 15.1649 58.927 17.3451C58.927 18.944 58.214 20.1552 57.0935 20.7366C56.4314 20.1068 55.973 19.2347 55.7693 18.2172C55.6165 17.4905 55.4637 17.4905 55.3109 17.4905C55.0053 17.4905 55.0053 17.7812 55.0053 18.0719C55.0053 19.3316 55.3109 20.3006 55.8202 21.1242C55.6674 21.1242 55.4637 21.1727 55.3109 21.1727C53.783 21.1727 52.8662 20.4459 52.8662 19.5738C52.8662 19.4285 52.8662 19.1378 53.1718 18.8471C53.4774 18.5564 53.3246 18.411 53.1718 18.411C52.5607 18.411 51.9495 19.1378 51.9495 20.0099C51.9495 21.0273 52.8662 22.4808 55.4128 22.4808C55.7693 22.4808 56.2786 22.4324 56.8388 22.287C57.7047 22.9169 58.7233 23.2076 59.7928 23.2076C60.8624 23.2076 61.881 22.9169 62.7468 22.287C63.3071 22.4324 63.8164 22.4808 64.1729 22.4808C66.7704 22.4808 67.6362 21.0273 67.6362 20.0099C67.6362 19.1378 67.025 18.411 66.4138 18.411C66.261 18.411 66.1083 18.5564 66.4138 18.8471C66.7194 19.1378 66.7194 19.4285 66.7194 19.5738C66.7194 20.4459 65.8027 21.1727 64.2747 21.1727C64.122 21.1727 63.9182 21.1727 63.7654 21.1242C64.2747 20.349 64.5803 19.3316 64.5803 18.0719C64.5803 17.7812 64.5803 17.4905 64.2747 17.4905C64.122 17.4905 63.9692 17.4905 63.8164 18.2172C63.6127 19.2347 63.1543 20.1068 62.4922 20.7366C61.3717 20.1552 60.6587 18.944 60.6587 17.3451C60.6587 15.1649 62.645 13.2753 66.5666 13.2753C71.0995 13.2753 75.7851 15.1649 83.0682 22.9169L91.4209 31.6379C93.1016 33.5274 94.8842 34.9809 96.7177 36.2891C97.94 37.1612 99.0096 37.7426 100.181 38.4693C98.6531 39.3414 97.5835 40.2135 96.7177 41.0856C96.4121 39.3414 94.8842 38.0333 92.9488 38.0333C91.4209 38.0333 90.1986 38.9054 89.6383 39.9228C89.3327 40.5042 88.8744 40.9403 88.2632 40.9403C87.8048 40.9403 87.4992 40.6496 87.4992 40.2135C87.4992 39.9228 87.3464 39.6321 87.0408 39.6321C86.5825 39.6321 86.4297 40.0682 86.4297 40.3589C86.4297 41.3763 87.1936 42.1031 88.2632 42.1031C88.7216 42.1031 89.0271 41.9577 89.3327 41.8124C89.3327 42.5391 90.2495 43.9926 92.083 43.9926C92.6942 43.9926 93.1525 43.8473 93.1525 43.4112C93.1525 42.9752 92.847 42.9752 92.3886 42.9752C91.319 42.9752 90.7079 42.3938 90.7079 41.3763C90.7079 40.3589 91.6246 39.3414 92.9998 39.3414C94.5277 39.3414 95.5972 40.3589 95.5972 42.1031C95.5972 42.9752 95.1389 43.7019 95.1389 44.8647C95.1389 46.6089 96.0556 48.0624 97.5835 48.4985C90.3004 51.5508 86.8371 57.704 86.8371 63.2273C86.8371 68.3145 88.6706 72.4328 93.0507 76.3572L96.514 79.5549C100.588 83.1887 104.255 87.2585 104.255 93.2663C103.95 99.4194 99.2643 103.78 93.0507 103.78ZM59.5382 130.912C58.3158 128.586 56.9407 127.133 56.3805 126.406C57.9084 125.825 58.9779 124.807 59.5382 123.644C60.1493 124.807 61.2189 125.825 62.6959 126.406C62.1357 127.084 60.7605 128.538 59.5382 130.912ZM61.0661 21.5603C60.6077 21.7541 60.0984 21.851 59.5382 21.851C58.9779 21.851 58.4686 21.7541 58.0103 21.5603C58.6214 21.1242 59.1307 20.4944 59.5382 19.5738C59.9456 20.4944 60.5059 21.1242 61.0661 21.5603ZM106.344 87.0162C105.427 87.0162 104.663 87.4523 104.357 88.0337C103.135 85.4174 101.913 82.9464 96.6158 78.2468C96.9214 78.3921 97.991 78.5375 98.7549 78.5375C100.436 78.5375 102.218 78.1014 103.288 77.084C103.593 78.1014 104.51 78.6828 105.58 78.6828C107.26 78.6828 107.872 77.6654 107.872 76.5026C107.872 76.0665 107.719 75.6305 107.26 75.6305C106.344 75.6305 107.108 77.3747 105.58 77.3747C104.969 77.3747 104.51 76.9386 104.51 76.2119C104.51 75.4851 104.969 74.613 104.969 73.5956C104.969 71.27 103.441 69.6711 101.658 69.2351C100.588 68.9444 99.9773 68.2176 99.9773 67.3455C99.9773 66.1827 100.894 66.0374 101.505 66.0374C102.116 66.0374 102.575 66.1827 102.575 65.7467C102.575 65.3106 102.116 65.0199 101.2 65.0199C100.13 65.0199 98.6022 65.7467 98.6022 67.3455C98.6022 67.9269 98.7549 68.5083 99.3661 69.0897C97.991 69.3804 96.7686 70.3979 96.7686 71.9967C96.7686 73.0142 97.0742 74.0316 97.8382 74.0316C98.7549 74.0316 97.991 73.3049 97.991 72.1421C97.991 70.8339 99.2133 70.2525 100.436 70.2525C102.116 70.2525 103.593 71.706 103.593 73.5956C103.593 75.7758 101.76 77.2293 98.9077 77.2293C97.227 77.2293 94.8333 76.9386 92.847 74.7584C89.6893 71.4153 87.8557 68.5083 87.8557 63.2273C87.8557 56.5412 92.847 50.6787 100.13 48.7892C101.658 48.3531 102.88 47.045 102.88 45.3008C102.88 43.8473 101.964 42.6845 100.436 42.6845C99.8245 42.6845 99.3661 42.8298 99.3661 43.2659C99.3661 43.7019 99.8245 43.7019 100.13 43.7019C100.741 43.7019 101.505 44.2833 101.505 45.3008C101.505 46.7543 100.283 47.6264 98.9077 47.6264C97.227 47.6264 96.1575 46.4636 96.1575 44.8647C96.1575 41.8124 99.9264 39.7775 102.829 38.4693C100.232 37.3065 99.3661 36.8705 97.3798 35.417C96.9214 34.9809 96.7686 34.5449 96.7686 33.9635C96.7686 33.2367 97.227 32.6553 97.8382 32.6553C98.2966 32.6553 98.6022 32.946 98.6022 33.3821C98.6022 33.8181 98.2966 33.8181 98.2966 34.1088C98.2966 34.3995 98.4494 34.5449 98.7549 34.5449C99.0605 34.5449 99.8245 34.2542 99.8245 33.0914C99.8245 32.2193 99.2133 31.3472 97.8382 31.3472C96.4631 31.3472 95.3935 32.3646 95.3935 33.8181C94.324 32.946 93.1016 31.9286 92.083 30.7658L87.2446 25.6785C85.8694 24.225 86.6334 21.4634 88.6197 21.4634C89.6892 21.4634 90.1476 22.1901 90.1476 22.7715C90.1476 24.0797 88.7725 23.4983 88.7725 24.225C88.7725 24.5157 88.9253 24.8064 89.3837 24.8064C90.4532 24.8064 91.5228 24.0797 91.5228 22.6262C91.5228 21.318 90.3004 20.1552 88.6197 20.1552C86.6334 20.1552 85.3092 21.6087 85.3092 23.6436L83.7813 22.0448C77.1093 15.068 71.6597 11.9672 66.3629 11.9672C64.3766 11.9672 62.594 12.5486 61.5245 13.2753C60.6077 12.2579 60.1493 11.5311 59.5382 10.659C58.927 11.5311 58.4686 12.2579 57.5519 13.2753C56.4823 12.5486 54.6488 11.9672 52.7134 11.9672C47.4166 11.9672 41.967 15.0195 35.2951 22.0448L33.7672 23.6436C33.7672 21.6087 32.392 20.1552 30.4567 20.1552C28.7759 20.1552 27.5536 21.318 27.5536 22.6262C27.5536 24.0797 28.6231 24.8064 29.6927 24.8064C30.1511 24.8064 30.3039 24.5157 30.3039 24.225C30.3039 23.4983 28.9287 24.0797 28.9287 22.7715C28.9287 22.1901 29.3871 21.4634 30.4567 21.4634C32.443 21.4634 33.2069 24.225 31.8318 25.6785L26.9934 30.7658C25.9238 31.9286 24.7015 32.946 23.6829 33.8181C23.6829 32.3646 22.6133 31.3472 21.2382 31.3472C19.863 31.3472 19.2519 32.2193 19.2519 33.0914C19.2519 34.2542 20.0158 34.5449 20.3214 34.5449C20.627 34.5449 20.7798 34.3995 20.7798 34.1088C20.7798 33.8181 20.4742 33.8181 20.4742 33.3821C20.4742 32.946 20.7798 32.6553 21.2382 32.6553C21.8493 32.6553 22.3077 33.2367 22.3077 33.9635C22.3077 34.5449 22.1549 34.9809 21.6965 35.417C19.863 37.1612 18.7935 37.3065 16.2469 38.4693C19.15 39.7775 22.9189 41.8124 22.9189 44.8647C22.9189 46.4636 21.8493 47.6264 20.1686 47.6264C18.7935 47.6264 17.5711 46.7543 17.5711 45.3008C17.5711 44.2833 18.3351 43.7019 18.9463 43.7019C19.2519 43.7019 19.7102 43.7019 19.7102 43.2659C19.7102 42.8298 19.2519 42.6845 18.6407 42.6845C17.1128 42.6845 16.196 43.8473 16.196 45.3008C16.196 47.045 17.4184 48.3531 18.9463 48.7892C26.2294 50.8241 31.2206 56.4927 31.2206 63.2273C31.2206 68.4599 29.2343 71.2215 26.2294 74.7584C24.2431 76.9386 21.8493 77.2293 20.1686 77.2293C17.2656 77.2293 15.483 75.7758 15.483 73.5956C15.483 71.706 17.0109 70.2525 18.6407 70.2525C19.863 70.2525 21.0854 70.8339 21.0854 72.1421C21.0854 73.3049 20.3214 74.0316 21.2382 74.0316C22.0021 74.0316 22.3077 73.0142 22.3077 71.9967C22.3077 70.3979 21.0854 69.3804 19.7102 69.0897C20.3214 68.5083 20.4742 67.9269 20.4742 67.3455C20.4742 65.7467 18.9463 65.0199 17.8767 65.0199C16.96 65.0199 16.5016 65.3106 16.5016 65.7467C16.5016 66.1827 16.96 66.0374 17.5711 66.0374C18.1823 66.0374 19.0991 66.1827 19.0991 67.3455C19.0991 68.2176 18.4879 68.9444 17.4184 69.2351C15.5848 69.6711 14.1079 71.27 14.1079 73.5956C14.1079 74.613 14.5662 75.4851 14.5662 76.2119C14.5662 76.9386 14.1078 77.3747 13.4967 77.3747C11.9688 77.3747 12.7327 75.6305 11.816 75.6305C11.3576 75.6305 11.2048 76.0665 11.2048 76.5026C11.2048 77.6654 11.816 78.6828 13.4967 78.6828C14.5662 78.6828 15.483 78.1014 15.7886 77.084C16.8581 78.1014 18.6916 78.5375 20.3214 78.5375C21.0854 78.5375 22.1549 78.3921 22.4605 78.2468C17.1637 82.898 15.9414 85.3689 14.719 88.0337C14.4134 87.4523 13.6495 87.0162 12.7327 87.0162C11.2048 87.0162 10.4408 87.8883 10.4408 89.1965C10.4408 89.4872 10.4408 90.3593 11.2048 90.3593C11.816 90.3593 11.5104 89.7779 11.5104 89.3418C11.5104 88.7604 11.9688 88.3244 12.7327 88.3244C13.9551 88.3244 14.2606 89.3418 13.9551 90.9407C13.8023 91.6674 13.8023 92.5395 13.8023 93.2663C13.8023 100.098 19.0991 105.088 26.0766 105.088C27.1462 105.088 28.0629 104.943 29.0815 104.797L31.2206 107.85C29.6927 108.286 28.6231 109.594 28.6231 111.047C28.6231 112.937 30.1511 114.391 32.0864 114.391C33.3088 114.391 34.2255 113.809 34.2255 113.228C34.2255 112.792 33.92 112.646 33.6144 112.646C33.156 112.646 33.156 113.082 32.0864 113.082C30.8641 113.082 29.9473 112.21 29.9473 111.047C29.9473 109.885 31.0169 109.013 32.5448 109.013C35.4479 109.013 36.7721 112.21 38.7584 115.408L40.7447 118.606C43.9024 123.838 49.0974 126.891 53.3246 126.891C53.9358 126.891 54.547 126.891 55.1581 126.745C56.9916 128.489 58.7742 131.687 59.5382 133.141C60.3021 131.687 62.1357 128.489 63.9182 126.745C64.5294 126.891 65.1406 126.891 65.7517 126.891C69.979 126.891 75.123 123.838 78.3317 118.606L80.318 115.408C82.3043 112.21 83.6285 109.013 86.5315 109.013C88.0595 109.013 89.129 109.885 89.129 111.047C89.129 112.21 88.2123 113.082 86.9899 113.082C85.9204 113.082 85.9204 112.646 85.462 112.646C85.1564 112.646 84.8508 112.792 84.8508 113.228C84.8508 113.809 85.7676 114.391 86.9899 114.391C88.9762 114.391 90.4532 112.937 90.4532 111.047C90.4532 109.594 89.3837 108.286 87.8557 107.85L89.9948 104.797C91.0644 104.943 91.9811 105.088 92.9998 105.088C99.9773 105.088 105.274 100.146 105.274 93.2663C105.274 92.5395 105.274 91.6674 105.121 90.9407C104.816 89.3418 105.121 88.3244 106.344 88.3244C107.108 88.3244 107.566 88.7604 107.566 89.3418C107.566 89.7779 107.26 90.3593 107.872 90.3593C108.636 90.3593 108.636 89.4872 108.636 89.1965C108.636 87.8883 107.872 87.0162 106.344 87.0162ZM102.422 112.065C95.75 118.606 85.9204 123.305 76.4982 127.666C70.2846 130.573 64.2238 133.48 59.5382 137.017C54.8525 133.528 48.7918 130.621 42.5782 127.666C33.2069 123.305 23.3263 118.606 16.6544 112.065C8.19987 103.78 4.07447 95.3012 4.07447 85.7081C4.07447 77.5685 7.38498 70.6886 14.9737 61.5315C15.5848 60.8048 16.196 60.078 16.196 59.4966C16.196 58.9152 15.5848 57.7524 15.2793 57.171L9.98245 46.076C8.76011 43.605 7.53777 41.2794 7.53777 38.8085C7.53777 36.7736 8.9129 35.3201 10.6955 33.8666L18.3351 27.2774C18.6407 26.9867 18.6407 26.5506 18.4879 26.2599L16.0432 21.4634C15.7376 20.882 15.7376 20.4459 16.196 20.1552C23.6319 15.3587 29.8455 13.9052 38.7584 11.5796C47.2638 9.3993 54.8016 7.50975 59.5382 4.60275C64.2238 7.50975 71.8125 9.3993 80.318 11.5796C89.2818 13.9052 95.3426 15.6494 102.88 20.1552C103.339 20.4459 103.339 20.882 103.033 21.4634L100.588 26.2599C100.436 26.5506 100.436 26.9867 100.741 27.2774L108.33 33.8181C110.163 35.2716 111.488 36.7251 111.488 38.76C111.488 41.231 110.265 43.5566 109.043 46.0275L103.746 57.1226C103.441 57.704 102.829 58.8668 102.829 59.4482C102.829 60.0296 103.441 60.7563 104.052 61.4831C112.252 70.2041 114.951 77.52 114.951 85.6596C115.002 95.3012 110.927 103.78 102.422 112.065ZM109.552 61.9676C108.177 60.3687 107.413 59.642 107.413 59.0606C107.413 58.4792 107.872 57.6071 108.33 56.5896L112.863 46.9481C114.238 44.0411 115.46 41.5701 115.46 38.5178C115.46 36.3375 114.544 34.1573 112.303 32.2677L105.783 26.8898C105.172 26.4537 105.172 25.727 105.478 25.1456L107.923 19.913C108.075 19.6223 108.075 19.1862 107.617 18.8955C100.181 14.099 91.7265 11.192 83.6794 8.96325C75.6323 6.83145 64.835 3.92445 59.5382 0C54.2414 3.92445 43.495 6.6861 35.4479 8.9148C27.4008 11.0951 18.9463 14.0021 11.5104 18.8471C11.052 19.1378 11.052 19.5738 11.2048 19.8645L13.6495 25.0971C13.9551 25.6785 13.9551 26.4053 13.3439 26.8413L6.82474 32.2193C4.53285 34.1088 3.66702 36.2891 3.66702 38.4693C3.66702 41.5217 4.88936 43.9926 6.2645 46.8996L10.7973 56.5412C11.2557 57.5586 11.7141 58.4307 11.7141 59.0121C11.7141 59.5935 10.9501 60.3203 9.575 61.9191C2.75027 70.1072 0 76.7933 0 85.7081C0 98.1113 6.36636 107.559 13.6495 114.73C21.0854 121.997 31.3734 126.842 40.7956 131.203C47.0092 134.11 53.5283 137.017 59.5891 141.716C65.6499 137.065 72.169 134.158 78.3826 131.203C87.7539 126.842 98.2456 121.997 105.529 114.73C112.812 107.607 119.178 98.1113 119.178 85.7081C119.076 76.7933 116.377 70.1072 109.552 61.9676Z" fill="white"/>
</svg>
