<svg width="197" height="58" viewBox="0 0 197 58" fill="none" xmlns="http://www.w3.org/2000/svg">
<g clip-path="url(#clip0_27_42)">
<path fill-rule="evenodd" clip-rule="evenodd" d="M92.2944 21.1848C92.3929 17.892 89.7137 14.877 84.0795 14.7778C80.0804 14.7183 77.1254 16.1267 76.8693 19.4591C76.6526 22.2559 77.5785 22.7915 79.3712 23.5254C80.2971 24.5371 87.8619 25.7669 89.3788 26.0247C91.5655 26.4215 96.2935 27.4133 98.7954 30.0316C103.386 34.931 101.258 44.5713 96.2935 47.864C92.8854 50.0856 88.2362 50.641 83.8037 50.7005C81.7746 50.76 76.9678 50.0261 74.0128 47.864C70.4668 45.2457 68.6938 41.219 68.4377 37.3907H76.4162C76.4162 38.442 76.7511 40.128 78.1104 41.576C79.9031 43.4803 82.8778 44.0754 85.6161 43.9762C88.3544 43.9167 90.9154 43.0836 91.9595 42.0719C93.7128 40.4057 94.0871 37.232 92.1171 35.2286C89.4773 32.4317 81.617 32.4317 76.4753 30.6465C72.1413 29.139 68.5953 25.9652 69.2454 19.3996C69.8955 12.9331 74.4856 8.13281 84.2371 8.13281C86.3647 8.13281 93.8113 8.2915 97.6922 13.3298C99.7804 16.0473 100.312 19.8558 99.9971 21.1848H92.2944Z" fill="white"/>
<path fill-rule="evenodd" clip-rule="evenodd" d="M121.707 35.2283C119.52 36.5573 116.565 36.4582 114.595 36.835C112.251 37.2913 110.596 39.2947 111.266 41.7543C111.699 43.5396 113.058 44.809 116.348 44.2536C120.879 43.5197 121.707 40.2865 121.707 36.9541V35.2283ZM122.573 49.4308C122.022 48.7167 121.707 47.4869 121.746 46.4158C119.067 48.9746 116.703 50.7003 112.231 50.7003C106.203 50.7003 103.248 47.2489 103.464 41.3973C103.622 37.1524 105.277 33.0266 112.054 31.8562C114.89 31.7372 117.964 31.0826 119.776 30.4677C121.135 29.9718 121.805 28.5238 121.687 27.056C121.687 25.1716 120.15 24.3186 116.644 24.3186C112.27 24.3186 111.719 27.056 111.62 29.2379H104.41C104.528 19.5977 112.625 18.7051 116.663 18.7051C119.618 18.7051 122.199 19.201 123.677 19.8159C126.632 21.0457 128.976 23.4855 128.976 28.2858V44.7892C128.917 46.1182 129.685 47.4671 130.67 48.3597V49.4308H122.573Z" fill="white"/>
<path fill-rule="evenodd" clip-rule="evenodd" d="M131.97 19.8359H136.147V16.3249C136.147 11.8222 138.393 8.80713 143.377 8.80713H148.144V14.5992H145.465C144.421 14.5992 143.81 15.2736 143.81 16.6621V19.8359H148.361V25.013H143.81V49.4309H136.147V25.0328H131.97V19.8359Z" fill="white"/>
<path fill-rule="evenodd" clip-rule="evenodd" d="M151.67 19.2211H159.334V25.0727H159.432C159.925 23.2875 160.299 22.2362 162.998 20.3319C164.318 19.3203 166.071 18.3285 168.474 18.7252V26.6992C165.204 26.3025 160.259 25.8661 159.334 32.4318V49.4311H151.67V19.2211Z" fill="white"/>
<path fill-rule="evenodd" clip-rule="evenodd" d="M188.017 35.2283C185.83 36.5573 182.875 36.4582 180.905 36.835C178.541 37.2913 176.906 39.2947 177.556 41.7543C177.99 43.5396 179.369 44.809 182.639 44.2536C187.189 43.5197 187.997 40.2865 187.997 36.9541V35.2283H188.017ZM188.903 49.4308C188.352 48.7167 188.017 47.4869 188.076 46.4158C185.397 48.9746 183.052 50.7003 178.561 50.7003C172.533 50.7003 169.578 47.2489 169.794 41.3973C169.952 37.1524 171.587 33.0266 178.384 31.8562C181.22 31.7372 184.294 31.0826 186.106 30.4677C187.485 29.9718 188.135 28.5238 188.017 27.056C188.017 25.1716 186.48 24.3186 182.993 24.3186C178.62 24.3186 178.068 27.056 177.95 29.2379H170.74C170.838 19.5977 178.935 18.7051 182.993 18.7051C185.948 18.7051 188.529 19.201 190.007 19.8159C192.962 21.0457 195.306 23.4855 195.306 28.2858V44.7892C195.247 46.1182 196.015 47.4671 197 48.3597V49.4308H188.903Z" fill="white"/>
<path fill-rule="evenodd" clip-rule="evenodd" d="M28.4665 32.7291C28.3483 29.9521 27.3239 28.2859 26.2995 27.2743H26.3192C27.6588 27.2743 29.55 28.4644 29.55 30.3687C29.5303 31.42 29.1757 32.1936 28.4665 32.7291ZM23.9158 38.0451V35.3871C24.8811 35.3673 25.7676 35.2681 26.5556 35.1094C26.1813 36.9145 25.1766 37.7873 23.9158 38.0451ZM20.2319 34.9508C20.7244 35.1293 21.3548 35.2681 22.1625 35.3475V38.0055C21.1775 37.6484 20.3501 36.6566 20.2319 34.9508ZM20.2122 27.2743H22.1428V33.7011C21.4139 33.6019 20.7835 33.4234 20.2122 33.1854V27.2743ZM17.1784 22.9699C17.1784 21.9979 17.6118 21.1648 18.4589 20.5698V25.2709C17.6512 24.8146 17.1784 23.922 17.1784 22.9699ZM22.1625 15.5513V17.9713C21.5124 17.9911 20.882 18.0506 20.291 18.1696C20.5077 16.9795 21.1775 15.9877 22.1625 15.5513ZM25.9252 18.5465C25.3933 18.3482 24.7235 18.1696 23.9158 18.0506V15.4521C24.8614 15.7695 25.6494 16.7414 25.9252 18.5465ZM23.9158 25.5882V19.6772C24.6447 19.7763 25.3539 19.9549 26.0237 20.2127C25.9449 22.7517 24.6644 25.132 23.9158 25.5882ZM20.2122 19.816C20.7835 19.6772 21.4336 19.5978 22.1428 19.578V25.6676H20.2122V19.816ZM26.7329 33.4829C25.9646 33.6614 25.019 33.7606 23.9158 33.7804V27.2941C24.7235 27.4726 26.7329 29.4562 26.7329 33.3044V33.4829ZM26.0237 25.6676H25.9449C26.8314 24.5568 27.5209 22.8112 27.7376 21.026C28.3483 21.4029 28.9196 21.8393 29.3727 22.3153C29.6091 22.5534 29.7273 22.6724 29.9046 22.6724C30.2592 22.6724 30.4365 22.3748 30.2592 22.0773C29.7864 21.3037 29.6091 20.6491 29.6091 19.816C29.6091 19.2804 29.7864 18.8044 29.9046 18.5068C30.0228 18.2093 29.9046 17.9118 29.55 17.9118C29.2545 17.9118 29.1954 18.1498 29.0772 18.3283C28.8605 18.725 28.4074 19.0821 27.7573 19.1019C27.5012 15.8687 25.8858 14.3016 24.2113 13.8653C24.8023 12.4172 26.2995 11.5246 28.2498 11.1081C28.5453 11.0486 28.7817 10.9295 28.7817 10.6915C28.7817 10.394 28.5453 10.275 28.2498 10.275C27.5997 10.275 26.6738 10.632 25.9055 10.87C24.7432 11.2271 23.7385 11.4651 22.852 11.4651C20.9805 11.4651 19.3454 10.632 18.8135 10.632C18.5771 10.632 18.3998 10.8105 18.3998 11.0486C18.3998 11.2271 18.518 11.4056 18.8726 11.5246C20.4289 12.0404 21.4533 12.8536 21.8867 13.9644C20.9608 14.3016 20.1925 15.0157 19.6606 15.9282C19.0302 14.6389 18.2422 14.0834 17.0996 14.0834C15.9767 14.0834 15.1099 14.9166 15.1099 15.9282C15.1099 16.6423 15.5827 17.1778 16.1146 17.1778C16.351 17.1778 16.4692 17.0588 16.4692 16.8803C16.4692 16.6423 16.351 16.5828 16.351 16.2257C16.351 15.8687 16.6465 15.5711 17.1193 15.5711C17.8285 15.5711 18.4589 16.2852 18.4589 18.249V18.7449C16.6071 19.578 15.4054 21.0458 15.4054 23.0294C15.4054 25.0725 16.7253 26.5999 18.4589 27.0958V32.1341C17.139 31.0629 16.4101 29.6546 15.9373 28.643C15.8191 28.4049 15.7009 28.1074 15.4054 28.1074C15.0508 28.1074 14.9326 28.4644 15.1099 28.881C15.2872 29.2975 15.4054 29.9521 15.4054 30.5472C15.4054 31.2613 15.169 31.9159 14.6962 32.3919C14.4598 32.63 14.2825 32.8085 14.2825 32.987C14.2825 33.225 14.4598 33.3441 14.6371 33.3441C14.9917 33.3441 15.4054 32.9275 16.154 32.9275C16.6268 32.9275 17.2178 33.1655 18.1437 33.7606L18.4392 33.9391V35.4863C18.4392 36.3194 18.0846 36.855 17.3754 36.855C16.9026 36.855 16.6071 36.498 16.6071 36.0219C16.6071 35.6648 16.8435 35.5458 16.8435 35.3673C16.8435 35.1888 16.7253 35.0698 16.4889 35.0698C16.1343 35.0698 15.5433 35.6053 15.5433 36.4979C15.5433 37.3311 16.1343 38.3427 17.3557 38.3427C18.0452 38.3427 18.715 38.1245 19.3257 37.5096C19.897 38.4419 20.882 39.275 22.0246 39.5923C21.7094 41.1594 20.6456 42.4685 19.1287 42.4685C18.3604 42.4685 17.9664 42.052 17.9664 41.5164C17.9664 41.0999 18.2619 40.8618 18.4983 40.7428C18.7938 40.6238 19.0302 40.5643 19.0302 40.2072C19.0302 40.0287 18.912 39.7907 18.321 39.7907C17.2572 39.7907 16.3904 40.7428 16.3904 41.8735C16.3904 43.1231 17.2769 44.3133 19.0893 44.3133C20.6456 44.3133 21.9852 43.5397 22.8323 42.5677C23.837 43.4008 25.3539 44.0752 26.1222 44.0752C26.3586 44.0752 26.595 43.9562 26.595 43.7182C26.595 43.4802 26.3586 43.3016 26.1222 43.1826C24.7826 42.4685 23.8961 41.4569 23.8961 39.6717V39.6518C25.9843 39.2551 27.9543 37.5294 28.3877 34.554C30.2986 33.7209 31.2836 32.3126 31.2836 30.3687C31.3033 27.5718 28.7226 25.6676 26.0237 25.6676ZM35.9919 42.4884C33.9431 42.4884 32.5838 41.2982 32.5838 39.513C32.5838 38.0253 33.5885 36.8352 34.7508 36.8352C35.2236 36.8352 35.6373 37.0137 35.6373 37.4897C35.6373 37.7873 35.5191 38.0253 35.8146 38.0253C35.9919 38.0253 36.1692 37.8468 36.1692 37.3707C36.1692 36.7757 35.6373 36.2996 34.8887 36.2996H34.7114C34.8296 36.0616 34.8296 35.8235 34.8296 35.764C34.8296 35.2285 34.4159 34.9309 34.0022 34.9309C33.5885 34.9309 33.1748 35.1689 33.1748 35.4665C33.1748 35.5855 33.2339 35.645 33.3521 35.645C33.5294 35.645 33.5885 35.4665 33.884 35.4665C34.1204 35.4665 34.2977 35.5855 34.2977 35.883C34.2977 36.2996 33.9431 36.4781 33.6476 36.6566C32.702 37.1922 32.0716 38.2633 32.0716 39.513C32.0716 41.1792 33.0172 42.2503 34.3568 42.7264L33.4703 44.0951C32.308 44.0951 31.717 44.9877 30.6532 46.8919C30.535 46.4159 30.1804 46.0588 29.5894 46.0588C28.9393 46.0588 28.5256 46.5349 28.5256 47.1895C28.5256 47.368 28.6438 47.487 28.762 47.487C28.9393 47.487 29.0575 47.368 29.0575 47.1895C29.0575 46.8919 29.2348 46.5944 29.5894 46.5944C30.0031 46.5944 30.1804 46.8919 30.1804 47.249C30.1804 47.6655 30.1213 47.9036 29.8258 48.3796C28.6044 50.4029 26.8905 51.4145 25.4327 51.4145C24.1522 51.4145 23.3839 50.6409 23.3839 49.8673C23.3839 49.1532 23.7976 48.5581 24.5068 48.5581C24.9796 48.5581 25.2751 48.8557 25.2751 49.2722C25.2751 49.6293 24.9796 49.6293 24.9796 49.8078C24.9796 49.9268 25.0978 49.9863 25.216 49.9863C25.5706 49.9863 25.807 49.5698 25.807 49.1532C25.807 48.4986 25.2751 48.0226 24.5265 48.0226C23.8173 48.0226 23.246 48.4986 23.0687 48.9747C22.8914 48.4986 22.3004 48.0226 21.6109 48.0226C20.8426 48.0226 20.3304 48.4986 20.3304 49.1532C20.3304 49.5698 20.5668 49.9863 20.9214 49.9863C21.0396 49.9863 21.1578 49.9268 21.1578 49.8078C21.1578 49.6293 20.8623 49.6293 20.8623 49.2722C20.8623 48.8557 21.1578 48.5581 21.6306 48.5581C22.3398 48.5581 22.7535 49.1532 22.7535 49.8673C22.7535 50.6409 21.9852 51.4145 20.7047 51.4145C19.2469 51.4145 17.533 50.4029 16.3116 48.3796C16.0161 47.9036 15.957 47.6655 15.957 47.249C15.957 46.8919 16.1343 46.5944 16.548 46.5944C16.9026 46.5944 17.0799 46.8919 17.0799 47.1895C17.0799 47.368 17.1981 47.487 17.3754 47.487C17.4936 47.487 17.6118 47.368 17.6118 47.1895C17.6118 46.5349 17.1981 46.0588 16.548 46.0588C15.957 46.0588 15.6024 46.4159 15.4842 46.8919C14.4204 44.9877 13.8491 44.0951 12.6671 44.0951L11.7806 42.7264C13.1202 42.2503 14.0658 41.1792 14.0658 39.513C14.0658 38.2633 13.4157 37.1922 12.4898 36.6566C12.1943 36.4781 11.8397 36.2996 11.8397 35.883C11.8397 35.5855 12.017 35.4665 12.2534 35.4665C12.5489 35.4665 12.608 35.645 12.7853 35.645C12.9035 35.645 12.9626 35.5855 12.9626 35.4665C12.9626 35.1689 12.5489 34.9309 12.1352 34.9309C11.7215 34.9309 11.3078 35.2285 11.3078 35.764C11.3078 35.8235 11.3078 36.0616 11.426 36.2996H11.2487C10.4804 36.2996 9.9682 36.7757 9.9682 37.3707C9.9682 37.8468 10.1455 38.0253 10.3228 38.0253C10.6183 38.0253 10.5001 37.7873 10.5001 37.4897C10.5001 37.0137 10.9138 36.8352 11.3866 36.8352C12.5489 36.8352 13.5536 38.0253 13.5536 39.513C13.5536 41.2982 12.214 42.4884 10.1455 42.4884C7.7421 42.4884 5.9297 40.7031 5.9297 38.184C5.9297 35.7442 7.3284 34.0581 8.9241 32.5704L10.2637 31.2613C11.9579 29.6546 12.6671 27.9884 12.6671 25.8858C12.6671 23.6245 11.3275 21.1053 8.5104 19.8557C9.1014 19.6772 9.456 19.0821 9.456 18.368C9.456 17.8919 9.2787 17.5944 9.2787 17.2373C9.2787 16.5233 9.6924 16.1067 10.2834 16.1067C10.8153 16.1067 11.1699 16.5233 11.1699 16.9398C11.1699 17.2969 10.9335 17.5944 10.5198 17.5944C10.3425 17.5944 10.2243 17.5944 10.2243 17.7729C10.2243 17.9514 10.4016 18.0109 10.638 18.0109C11.3472 18.0109 11.7018 17.4159 11.7018 17.1183C11.82 17.1778 11.9382 17.2373 12.1155 17.2373C12.5292 17.2373 12.8247 16.9398 12.8247 16.5233C12.8247 16.4042 12.7656 16.2257 12.5883 16.2257C12.4701 16.2257 12.411 16.3447 12.411 16.4637C12.411 16.6423 12.2928 16.7613 12.1155 16.7613C11.8791 16.7613 11.7018 16.5828 11.5836 16.3447C11.3472 15.9282 10.8744 15.5711 10.3031 15.5711C9.5348 15.5711 8.9635 16.1067 8.8453 16.8208C8.4907 16.4637 8.077 16.1067 7.5057 15.7497C7.9785 15.4521 8.3922 15.2141 8.8453 14.857C9.5545 14.3215 10.1849 13.7264 10.8941 12.9528L14.1249 9.38235C16.942 6.22845 18.7544 5.43502 20.5077 5.43502C22.0246 5.43502 22.7929 6.20862 22.7929 7.10123C22.7929 7.75581 22.5171 8.25171 22.0837 8.48974C21.8276 8.23187 21.6503 7.87483 21.5715 7.45828C21.5124 7.16074 21.4533 7.16074 21.3942 7.16074C21.276 7.16074 21.276 7.27975 21.276 7.39877C21.276 7.9145 21.3942 8.31122 21.5912 8.64843C21.5321 8.64843 21.4533 8.66826 21.3942 8.66826C20.8032 8.66826 20.4486 8.37073 20.4486 8.01368C20.4486 7.95417 20.4486 7.83516 20.5668 7.71614C20.685 7.59713 20.6259 7.53762 20.5668 7.53762C20.3304 7.53762 20.094 7.83516 20.094 8.1922C20.094 8.60876 20.4486 9.20383 21.4336 9.20383C21.5715 9.20383 21.7685 9.18399 21.9852 9.12449C22.3201 9.38235 22.7141 9.50137 23.1278 9.50137C23.5415 9.50137 23.9355 9.38235 24.2704 9.12449C24.4871 9.18399 24.6841 9.20383 24.822 9.20383C25.8267 9.20383 26.1616 8.60876 26.1616 8.1922C26.1616 7.83516 25.9252 7.53762 25.6888 7.53762C25.6297 7.53762 25.5706 7.59713 25.6888 7.71614C25.807 7.83516 25.807 7.95417 25.807 8.01368C25.807 8.37073 25.4524 8.66826 24.8614 8.66826C24.8023 8.66826 24.7235 8.66826 24.6644 8.64843C24.8614 8.33105 24.9796 7.9145 24.9796 7.39877C24.9796 7.27975 24.9796 7.16074 24.8614 7.16074C24.8023 7.16074 24.7432 7.16074 24.6841 7.45828C24.6053 7.87483 24.428 8.23187 24.1719 8.48974C23.7385 8.25171 23.4627 7.75581 23.4627 7.10123C23.4627 6.20862 24.231 5.43502 25.7479 5.43502C27.5012 5.43502 29.3136 6.20862 32.1307 9.38235L35.3615 12.9528C36.0116 13.7264 36.7011 14.3215 37.4103 14.857C37.8831 15.2141 38.2968 15.4521 38.7499 15.7497C38.1589 16.1067 37.7452 16.4637 37.4103 16.8208C37.2921 16.1067 36.7011 15.5711 35.9525 15.5711C35.3615 15.5711 34.8887 15.9282 34.672 16.3447C34.5538 16.5828 34.3765 16.7613 34.1401 16.7613C33.9628 16.7613 33.8446 16.6423 33.8446 16.4637C33.8446 16.3447 33.7855 16.2257 33.6673 16.2257C33.49 16.2257 33.4309 16.4042 33.4309 16.5233C33.4309 16.9398 33.7264 17.2373 34.1401 17.2373C34.3174 17.2373 34.4356 17.1778 34.5538 17.1183C34.5538 17.4159 34.9084 18.0109 35.6176 18.0109C35.854 18.0109 36.0313 17.9514 36.0313 17.7729C36.0313 17.5944 35.9131 17.5944 35.7358 17.5944C35.3221 17.5944 35.0857 17.3564 35.0857 16.9398C35.0857 16.5233 35.4403 16.1067 35.9722 16.1067C36.5632 16.1067 36.9769 16.5233 36.9769 17.2373C36.9769 17.5944 36.7996 17.8919 36.7996 18.368C36.7996 19.0821 37.1542 19.6772 37.7452 19.8557C34.9281 21.1053 33.5885 23.6245 33.5885 25.8858C33.5885 27.9685 34.2977 29.6546 35.9919 31.2613L37.3315 32.5704C38.9075 34.0581 40.3259 35.7243 40.3259 38.184C40.2077 40.7031 38.3953 42.4884 35.9919 42.4884ZM23.0293 53.5964C22.5565 52.6443 22.0246 52.0492 21.8079 51.7517C22.3989 51.5137 22.8126 51.0971 23.0293 50.6211C23.2657 51.0971 23.6794 51.5137 24.2507 51.7517C24.034 52.0294 23.5021 52.6245 23.0293 53.5964ZM23.6203 8.82695C23.443 8.90629 23.246 8.94596 23.0293 8.94596C22.8126 8.94596 22.6156 8.90629 22.4383 8.82695C22.6747 8.64843 22.8717 8.39056 23.0293 8.01368C23.1869 8.39056 23.4036 8.64843 23.6203 8.82695ZM41.1336 35.6252C40.779 35.6252 40.4835 35.8037 40.3653 36.0417C39.8925 34.9706 39.4197 33.959 37.3709 32.0349C37.4891 32.0944 37.9028 32.1539 38.1983 32.1539C38.8484 32.1539 39.5379 31.9754 39.9516 31.5588C40.0698 31.9754 40.4244 32.2134 40.8381 32.2134C41.4882 32.2134 41.7246 31.7969 41.7246 31.3208C41.7246 31.1423 41.6655 30.9638 41.4882 30.9638C41.1336 30.9638 41.4291 31.6778 40.8381 31.6778C40.6017 31.6778 40.4244 31.4993 40.4244 31.2018C40.4244 30.9042 40.6017 30.5472 40.6017 30.1306C40.6017 29.1785 40.0107 28.5239 39.3212 28.3454C38.9075 28.2264 38.6711 27.9289 38.6711 27.5718C38.6711 27.0958 39.0257 27.0363 39.2621 27.0363C39.4985 27.0363 39.6758 27.0958 39.6758 26.9172C39.6758 26.7387 39.4985 26.6197 39.1439 26.6197C38.7302 26.6197 38.1392 26.9172 38.1392 27.5718C38.1392 27.8099 38.1983 28.0479 38.4347 28.2859C37.9028 28.4049 37.43 28.8215 37.43 29.4761C37.43 29.8926 37.5482 30.3092 37.8437 30.3092C38.1983 30.3092 37.9028 30.0116 37.9028 29.5356C37.9028 29 38.3756 28.762 38.8484 28.762C39.4985 28.762 40.0698 29.357 40.0698 30.1306C40.0698 31.0233 39.3606 31.6183 38.2574 31.6183C37.6073 31.6183 36.6814 31.4993 35.9131 30.6067C34.6917 29.238 33.9825 28.0479 33.9825 25.8858C33.9825 23.1484 35.9131 20.7483 38.7302 19.9747C39.3212 19.7962 39.794 19.2606 39.794 18.5465C39.794 17.9514 39.4394 17.4754 38.8484 17.4754C38.612 17.4754 38.4347 17.5349 38.4347 17.7134C38.4347 17.8919 38.612 17.8919 38.7302 17.8919C38.9666 17.8919 39.2621 18.13 39.2621 18.5465C39.2621 19.1416 38.7893 19.4986 38.2574 19.4986C37.6073 19.4986 37.1936 19.0226 37.1936 18.368C37.1936 17.1183 38.6514 16.2852 39.7743 15.7497C38.7696 15.2736 38.4347 15.0951 37.6664 14.5C37.4891 14.3215 37.43 14.143 37.43 13.9049C37.43 13.6074 37.6073 13.3694 37.8437 13.3694C38.021 13.3694 38.1392 13.4884 38.1392 13.6669C38.1392 13.8454 38.021 13.8454 38.021 13.9644C38.021 14.0834 38.0801 14.143 38.1983 14.143C38.3165 14.143 38.612 14.0239 38.612 13.5479C38.612 13.1908 38.3756 12.8338 37.8437 12.8338C37.3118 12.8338 36.8981 13.2503 36.8981 13.8454C36.4844 13.4884 36.0116 13.0718 35.6176 12.5958L33.7461 10.513C33.2142 9.91792 33.5097 8.78728 34.278 8.78728C34.6917 8.78728 34.869 9.08482 34.869 9.32285C34.869 9.85841 34.3371 9.62038 34.3371 9.91792C34.3371 10.0369 34.3962 10.156 34.5735 10.156C34.9872 10.156 35.4009 9.85841 35.4009 9.26334C35.4009 8.72777 34.9281 8.25171 34.278 8.25171C33.5097 8.25171 32.9975 8.84679 32.9975 9.67989L32.4065 9.02531C29.8258 6.16895 27.7179 4.89945 25.6691 4.89945C24.9008 4.89945 24.2113 5.13748 23.7976 5.43502C23.443 5.01847 23.2657 4.72093 23.0293 4.36388C22.7929 4.72093 22.6156 5.01847 22.261 5.43502C21.8473 5.13748 21.1381 4.89945 20.3895 4.89945C18.3407 4.89945 16.2328 6.14911 13.6521 9.02531L13.0611 9.67989C13.0611 8.84679 12.5292 8.25171 11.7806 8.25171C11.1305 8.25171 10.6577 8.72777 10.6577 9.26334C10.6577 9.85841 11.0714 10.156 11.4851 10.156C11.6624 10.156 11.7215 10.0369 11.7215 9.91792C11.7215 9.62038 11.1896 9.85841 11.1896 9.32285C11.1896 9.08482 11.3669 8.78728 11.7806 8.78728C12.5489 8.78728 12.8444 9.91792 12.3125 10.513L10.441 12.5958C10.0273 13.0718 9.5545 13.4884 9.1605 13.8454C9.1605 13.2503 8.7468 12.8338 8.2149 12.8338C7.683 12.8338 7.4466 13.1908 7.4466 13.5479C7.4466 14.0239 7.7421 14.143 7.8603 14.143C7.9785 14.143 8.0376 14.0834 8.0376 13.9644C8.0376 13.8454 7.9194 13.8454 7.9194 13.6669C7.9194 13.4884 8.0376 13.3694 8.2149 13.3694C8.4513 13.3694 8.6286 13.6074 8.6286 13.9049C8.6286 14.143 8.5695 14.3215 8.3922 14.5C7.683 15.2141 7.2693 15.2736 6.2843 15.7497C7.4072 16.2852 8.865 17.1183 8.865 18.368C8.865 19.0226 8.4513 19.4986 7.8012 19.4986C7.2693 19.4986 6.7965 19.1416 6.7965 18.5465C6.7965 18.13 7.092 17.8919 7.3284 17.8919C7.4466 17.8919 7.6239 17.8919 7.6239 17.7134C7.6239 17.5349 7.4466 17.4754 7.2102 17.4754C6.6192 17.4754 6.2646 17.9514 6.2646 18.5465C6.2646 19.2606 6.7374 19.7962 7.3284 19.9747C10.1455 20.8078 12.0761 23.1286 12.0761 25.8858C12.0761 28.028 11.3078 29.1587 10.1455 30.6067C9.3772 31.4993 8.4513 31.6183 7.8012 31.6183C6.6783 31.6183 5.9888 31.0233 5.9888 30.1306C5.9888 29.357 6.5798 28.762 7.2102 28.762C7.683 28.762 8.1558 29 8.1558 29.5356C8.1558 30.0116 7.8603 30.3092 8.2149 30.3092C8.5104 30.3092 8.6286 29.8926 8.6286 29.4761C8.6286 28.8215 8.1558 28.4049 7.6239 28.2859C7.8603 28.0479 7.9194 27.8099 7.9194 27.5718C7.9194 26.9172 7.3284 26.6197 6.9147 26.6197C6.5601 26.6197 6.3828 26.7387 6.3828 26.9172C6.3828 27.0958 6.5601 27.0363 6.7965 27.0363C7.0329 27.0363 7.3875 27.0958 7.3875 27.5718C7.3875 27.9289 7.1511 28.2264 6.7374 28.3454C6.0282 28.5239 5.4569 29.1785 5.4569 30.1306C5.4569 30.5472 5.6342 30.9042 5.6342 31.2018C5.6342 31.4993 5.4569 31.6778 5.2205 31.6778C4.6295 31.6778 4.925 30.9638 4.5704 30.9638C4.3931 30.9638 4.334 31.1423 4.334 31.3208C4.334 31.7969 4.5704 32.2134 5.2205 32.2134C5.6342 32.2134 5.9888 31.9754 6.107 31.5588C6.5207 31.9754 7.2299 32.1539 7.8603 32.1539C8.1558 32.1539 8.5695 32.0944 8.6877 32.0349C6.6389 33.9391 6.1661 34.9508 5.6933 36.0417C5.5751 35.8037 5.2796 35.6252 4.925 35.6252C4.334 35.6252 4.0385 35.9822 4.0385 36.5178C4.0385 36.6368 4.0385 36.9938 4.334 36.9938C4.5704 36.9938 4.4522 36.7558 4.4522 36.5773C4.4522 36.3393 4.6295 36.1607 4.925 36.1607C5.3978 36.1607 5.516 36.5773 5.3978 37.2319C5.3387 37.5294 5.3387 37.8865 5.3387 38.184C5.3387 40.9809 7.3875 43.0239 10.0864 43.0239C10.5001 43.0239 10.8547 42.9644 11.2487 42.9049L12.0761 44.1546C11.4851 44.3331 11.0714 44.8687 11.0714 45.4637C11.0714 46.2373 11.6624 46.8324 12.411 46.8324C12.8838 46.8324 13.2384 46.5944 13.2384 46.3564C13.2384 46.1778 13.1202 46.1183 13.002 46.1183C12.8247 46.1183 12.8247 46.2969 12.411 46.2969C11.9382 46.2969 11.5836 45.9398 11.5836 45.4637C11.5836 44.9877 11.9973 44.6306 12.5883 44.6306C13.7112 44.6306 14.2234 45.9398 14.9917 47.249L15.76 48.5581C16.9814 50.7004 18.9908 51.9501 20.6259 51.9501C20.8623 51.9501 21.0987 51.9501 21.3351 51.8906C22.0443 52.6047 22.7338 53.9138 23.0293 54.5089C23.3248 53.9138 24.034 52.6047 24.7235 51.8906C24.9599 51.9501 25.1963 51.9501 25.4327 51.9501C27.0678 51.9501 29.0575 50.7004 30.2986 48.5581L31.0669 47.249C31.8352 45.9398 32.3474 44.6306 33.4703 44.6306C34.0613 44.6306 34.475 44.9877 34.475 45.4637C34.475 45.9398 34.1204 46.2969 33.6476 46.2969C33.2339 46.2969 33.2339 46.1183 33.0566 46.1183C32.9384 46.1183 32.8202 46.1778 32.8202 46.3564C32.8202 46.5944 33.1748 46.8324 33.6476 46.8324C34.4159 46.8324 34.9872 46.2373 34.9872 45.4637C34.9872 44.8687 34.5735 44.3331 33.9825 44.1546L34.8099 42.9049C35.2236 42.9644 35.5782 43.0239 35.9722 43.0239C38.6711 43.0239 40.7199 41.0007 40.7199 38.184C40.7199 37.8865 40.7199 37.5294 40.6608 37.2319C40.5426 36.5773 40.6608 36.1607 41.1336 36.1607C41.4291 36.1607 41.6064 36.3393 41.6064 36.5773C41.6064 36.7558 41.4882 36.9938 41.7246 36.9938C42.0201 36.9938 42.0201 36.6368 42.0201 36.5178C42.0201 35.9822 41.7246 35.6252 41.1336 35.6252ZM39.6167 45.8803C37.036 48.5581 33.2339 50.4822 29.5894 52.2674C27.186 53.4576 24.8417 54.6477 23.0293 56.0958C21.2169 54.6676 18.8726 53.4774 16.4692 52.2674C12.8444 50.4822 9.0226 48.5581 6.4419 45.8803C3.1717 42.4884 1.576 39.0171 1.576 35.0896C1.576 31.7572 2.8565 28.9405 5.7918 25.1915C6.0282 24.894 6.2646 24.5964 6.2646 24.3584C6.2646 24.1204 6.0282 23.6443 5.91 23.4063L3.8612 18.8639C3.3884 17.8523 2.9156 16.9001 2.9156 15.8885C2.9156 15.0554 3.4475 14.4603 4.137 13.8653L7.092 11.1676C7.2102 11.0486 7.2102 10.87 7.1511 10.751L6.2055 8.78728C6.0873 8.54925 6.0873 8.37072 6.2646 8.25171C9.1408 6.28796 11.5442 5.69289 14.9917 4.74077C18.2816 3.84815 21.1972 3.07456 23.0293 1.8844C24.8417 3.07456 27.777 3.84815 31.0669 4.74077C34.5341 5.69289 36.8784 6.40698 39.794 8.25171C39.9713 8.37072 39.9713 8.54925 39.8531 8.78728L38.9075 10.751C38.8484 10.87 38.8484 11.0486 38.9666 11.1676L41.9019 13.8454C42.6111 14.4405 43.1233 15.0356 43.1233 15.8687C43.1233 16.8803 42.6505 17.8324 42.1777 18.844L40.1289 23.3865C40.0107 23.6245 39.7743 24.1005 39.7743 24.3386C39.7743 24.5766 40.0107 24.8741 40.2471 25.1717C43.4188 28.7421 44.4629 31.7373 44.4629 35.0698C44.4826 39.0171 42.9066 42.4884 39.6167 45.8803ZM42.3747 25.37C41.8428 24.7155 41.5473 24.4179 41.5473 24.1799C41.5473 23.9419 41.7246 23.5848 41.9019 23.1683L43.6552 19.2209C44.1871 18.0308 44.6599 17.0192 44.6599 15.7695C44.6599 14.8769 44.3053 13.9843 43.4385 13.2107L40.9169 11.0089C40.6805 10.8304 40.6805 10.5328 40.7987 10.2948L41.7443 8.15253C41.8034 8.03352 41.8034 7.85499 41.6261 7.73598C38.7499 5.77223 35.4797 4.58208 32.3671 3.66963C29.2545 2.79685 25.0781 1.6067 23.0293 0C20.9805 1.6067 16.8238 2.73735 13.7112 3.64979C10.5986 4.54241 7.3284 5.73256 4.4522 7.71614C4.2749 7.83516 4.2749 8.01368 4.334 8.1327L5.2796 10.275C5.3978 10.513 5.3978 10.8105 5.1614 10.9891L2.6398 13.1908C1.7533 13.9644 1.4184 14.857 1.4184 15.7497C1.4184 16.9993 1.8912 18.0109 2.4231 19.2011L4.1764 23.1484C4.3537 23.565 4.531 23.922 4.531 24.1601C4.531 24.3981 4.2355 24.6956 3.7036 25.3502C1.0638 28.7025 0 31.4398 0 35.0896C0 40.1676 2.4625 44.0356 5.2796 46.9713C8.1558 49.9467 12.1352 51.9302 15.7797 53.7155C18.1831 54.9056 20.7047 56.0958 23.049 58.0198C25.3933 56.1156 27.9149 54.9254 30.3183 53.7155C33.9431 51.9302 38.0013 49.9467 40.8184 46.9713C43.6355 44.0554 46.098 40.1676 46.098 35.0896C46.0586 31.4398 45.0145 28.7025 42.3747 25.37Z" fill="white"/>
</g>
<defs>
<clipPath id="clip0_27_42">
<rect width="197" height="58" fill="white"/>
</clipPath>
</defs>
</svg>
